<?xml version="1.0" standalone="no"?>
<!DOCTYPE svg PUBLIC "-//W3C//DTD SVG 20010904//EN"
 "http://www.w3.org/TR/2001/REC-SVG-20010904/DTD/svg10.dtd">
<svg version="1.0" xmlns="http://www.w3.org/2000/svg"
 width="282.000000pt" height="282.000000pt" viewBox="0 0 282.000000 282.000000"
 preserveAspectRatio="xMidYMid meet">
<metadata>
Created by potrace 1.11, written by Peter Selinger 2001-2013
</metadata>
<g transform="translate(0.000000,282.000000) scale(0.100000,-0.100000)"
fill="#000000" stroke="none">
<path d="M1240 2499 c-250 -41 -510 -211 -658 -429 l-57 -85 -172 -3 -172 -2
-21 -27 c-20 -26 -21 -33 -18 -479 3 -440 4 -454 23 -468 16 -12 54 -15 187
-16 l168 0 36 -55 c20 -30 40 -55 45 -55 4 0 11 -9 14 -20 9 -27 149 -166 206
-205 24 -16 46 -32 49 -35 3 -3 19 -12 35 -20 17 -8 32 -17 35 -20 6 -7 117
-56 145 -64 11 -3 34 -8 50 -10 34 -5 69 -13 95 -21 20 -6 32 -9 100 -20 72
-12 264 -14 278 -3 8 7 12 6 12 -3 0 -11 2 -11 8 -2 4 7 35 19 68 26 33 8 70
20 82 26 12 6 22 9 22 5 0 -4 9 1 20 11 11 10 20 15 20 11 0 -4 13 2 29 13 16
12 35 21 41 21 44 0 321 233 380 320 8 13 21 28 27 35 7 8 17 25 22 38 l10 25
153 1 c151 2 153 2 180 28 l28 27 0 445 c-1 382 -3 449 -16 466 -14 18 -29 20
-177 23 l-162 4 -19 41 c-23 49 -244 270 -297 297 -21 11 -40 24 -44 30 -3 5
-15 10 -26 10 -10 0 -19 4 -19 9 0 8 -36 25 -75 37 -5 1 -46 17 -90 34 -159
63 -375 86 -545 59z"/>
</g>
</svg>
